<svg width="25" height="24" viewBox="0 0 25 24" fill="none" xmlns="http://www.w3.org/2000/svg">
<g id="CaretDown">
<path id="Vector" d="M20.5306 9.53063L13.0306 17.0306C12.9609 17.1004 12.8782 17.1557 12.7871 17.1934C12.6961 17.2312 12.5985 17.2506 12.4999 17.2506C12.4014 17.2506 12.3038 17.2312 12.2127 17.1934C12.1217 17.1557 12.039 17.1004 11.9693 17.0306L4.4693 9.53063C4.32857 9.3899 4.24951 9.19902 4.24951 9C4.24951 8.80098 4.32857 8.61011 4.4693 8.46938C4.61003 8.32865 4.80091 8.24958 4.99993 8.24958C5.19895 8.24958 5.38982 8.32865 5.53055 8.46938L12.4999 15.4397L19.4693 8.46938C19.539 8.39969 19.6217 8.34442 19.7128 8.30671C19.8038 8.26899 19.9014 8.24958 19.9999 8.24958C20.0985 8.24958 20.1961 8.26899 20.2871 8.30671C20.3781 8.34442 20.4609 8.39969 20.5306 8.46938C20.6002 8.53906 20.6555 8.62178 20.6932 8.71283C20.7309 8.80387 20.7503 8.90146 20.7503 9C20.7503 9.09855 20.7309 9.19613 20.6932 9.28717C20.6555 9.37822 20.6002 9.46094 20.5306 9.53063Z" fill="white"/>
</g>
</svg>
