<svg width="21" height="20" viewBox="0 0 21 20" fill="none" xmlns="http://www.w3.org/2000/svg">
<g id="Check">
<path id="Vector" d="M18.442 6.06717L8.44205 16.0672C8.384 16.1253 8.31507 16.1714 8.2392 16.2028C8.16332 16.2343 8.08199 16.2505 7.99986 16.2505C7.91772 16.2505 7.8364 16.2343 7.76052 16.2028C7.68465 16.1714 7.61572 16.1253 7.55767 16.0672L3.18267 11.6922C3.0654 11.5749 2.99951 11.4158 2.99951 11.25C2.99951 11.0841 3.0654 10.9251 3.18267 10.8078C3.29995 10.6905 3.45901 10.6246 3.62486 10.6246C3.79071 10.6246 3.94977 10.6905 4.06705 10.8078L7.99986 14.7414L17.5577 5.18279C17.6749 5.06552 17.834 4.99963 17.9999 4.99963C18.1657 4.99963 18.3248 5.06552 18.442 5.18279C18.5593 5.30007 18.6252 5.45913 18.6252 5.62498C18.6252 5.79083 18.5593 5.94989 18.442 6.06717Z" fill="white"/>
</g>
</svg>
