<svg width="16" height="16" viewBox="0 0 16 16" fill="none" xmlns="http://www.w3.org/2000/svg">
<g id="WarningCircle">
<path id="Vector" d="M8 1.5C6.71442 1.5 5.45772 1.88122 4.3888 2.59545C3.31988 3.30968 2.48676 4.32484 1.99479 5.51256C1.50282 6.70028 1.37409 8.00721 1.6249 9.26809C1.8757 10.529 2.49477 11.6872 3.40381 12.5962C4.31285 13.5052 5.47104 14.1243 6.73192 14.3751C7.99279 14.6259 9.29973 14.4972 10.4874 14.0052C11.6752 13.5132 12.6903 12.6801 13.4046 11.6112C14.1188 10.5423 14.5 9.28558 14.5 8C14.4982 6.27665 13.8128 4.62441 12.5942 3.40582C11.3756 2.18722 9.72335 1.50182 8 1.5ZM8 13.5C6.91221 13.5 5.84884 13.1774 4.94437 12.5731C4.0399 11.9687 3.33495 11.1098 2.91867 10.1048C2.50238 9.09977 2.39347 7.9939 2.60568 6.927C2.8179 5.86011 3.34173 4.8801 4.11092 4.11091C4.8801 3.34172 5.86011 2.8179 6.92701 2.60568C7.9939 2.39346 9.09977 2.50238 10.1048 2.91866C11.1098 3.33494 11.9687 4.03989 12.5731 4.94436C13.1774 5.84883 13.5 6.9122 13.5 8C13.4983 9.45818 12.9184 10.8562 11.8873 11.8873C10.8562 12.9184 9.45819 13.4983 8 13.5ZM7.5 8.5V5C7.5 4.86739 7.55268 4.74021 7.64645 4.64645C7.74022 4.55268 7.86739 4.5 8 4.5C8.13261 4.5 8.25979 4.55268 8.35356 4.64645C8.44732 4.74021 8.5 4.86739 8.5 5V8.5C8.5 8.63261 8.44732 8.75979 8.35356 8.85355C8.25979 8.94732 8.13261 9 8 9C7.86739 9 7.74022 8.94732 7.64645 8.85355C7.55268 8.75979 7.5 8.63261 7.5 8.5ZM8.75 10.75C8.75 10.8983 8.70602 11.0433 8.6236 11.1667C8.54119 11.29 8.42406 11.3861 8.28701 11.4429C8.14997 11.4997 7.99917 11.5145 7.85368 11.4856C7.7082 11.4566 7.57456 11.3852 7.46967 11.2803C7.36478 11.1754 7.29335 11.0418 7.26441 10.8963C7.23548 10.7508 7.25033 10.6 7.30709 10.463C7.36386 10.3259 7.45999 10.2088 7.58333 10.1264C7.70666 10.044 7.85167 10 8 10C8.19892 10 8.38968 10.079 8.53033 10.2197C8.67098 10.3603 8.75 10.5511 8.75 10.75Z" fill="#FBE54D"/>
</g>
</svg>
